<svg xmlns="http://www.w3.org/2000/svg" viewBox="0 0 501.99 205.9"><defs><style>.cls-1{fill:#211915;}.cls-2{fill:#d4be00;}</style></defs><title>Logo Litore</title><g id="Capa_2" data-name="Capa 2"><g id="Capa_1-2" data-name="Capa 1"><path class="cls-1" d="M.25,139.41V23.24H6.78V132.87h45v6.53Z"/><path class="cls-1" d="M52,139.66H0V23H7V132.62H52ZM.5,139.16h51v-6h-45V23.49H.5Z"/><path class="cls-1" d="M89.11,23.24V139.41H82.57V23.24Z"/><path class="cls-1" d="M89.35,139.66h-7V23h7Zm-6.53-.5h6V23.49h-6Z"/><path class="cls-1" d="M152.91,29.77V139.41h-6.53V29.77H117V23.24h65.34v6.53Z"/><path class="cls-1" d="M153.16,139.66h-7V30H116.72V23h65.84v7h-29.4Zm-6.53-.5h6V29.52h29.4v-6H117.22v6h29.41Z"/><path class="cls-1" d="M380.94,99q-.94.07-2,.07H359.23v40.29H352.7V23.24h30.49a38.43,38.43,0,0,1,22.58,11.11,36.51,36.51,0,0,1,11.11,26.79,38.23,38.23,0,0,1-28.75,37l26.79,41.31h-8.06ZM359.23,29.85V92.5H379a30.14,30.14,0,0,0,22.11-9.18,30.22,30.22,0,0,0,9.18-22.18A31.29,31.29,0,0,0,379,29.85Z"/><path class="cls-1" d="M415.38,139.66h-8.66l-.07-.12L380.81,99.3c-.58,0-1.2.06-1.83.06h-19.5v40.29h-7V23h30.74a38.86,38.86,0,0,1,22.76,11.18,36.91,36.91,0,0,1,11.18,27,38.5,38.5,0,0,1-28.6,37.11Zm-8.38-.5h7.46L387.72,97.94l.34-.08a38,38,0,0,0,28.56-36.71,36.43,36.43,0,0,0-11-26.61,38.36,38.36,0,0,0-22.44-11H352.94V139.16h6V98.86h20c.67,0,1.33,0,1.94-.07h.15l.08.13Zm-28-46.4H359V29.6h20a31.54,31.54,0,0,1,31.54,31.54,30.6,30.6,0,0,1-9.26,22.36A30.51,30.51,0,0,1,379,92.75Zm-19.5-.5H379a30,30,0,0,0,21.93-9.11,30.11,30.11,0,0,0,9.11-22,31,31,0,0,0-31-31h-19.5Z"/><path class="cls-1" d="M501.74,23.24v6.53H450.19V78.06h51.55v6.53H450.19v48.28h51.55v6.53H443.66V23.24Z"/><path class="cls-1" d="M502,139.66H443.41V23H502v7H450.44V77.81H502v7H450.44v47.78H502Zm-58.08-.5h57.58v-6H449.94V84.34h51.55v-6H449.94V29.52h51.55v-6H443.91Z"/><path class="cls-1" d="M162.32,181.83a18,18,0,0,1-7.18-4.15A9,9,0,0,1,167.91,165a7.56,7.56,0,0,1,2,3.17l-2.15.85a6.6,6.6,0,0,0-1.57-2.39,6.63,6.63,0,0,0-9.36,9.39,17.81,17.81,0,0,0,5,3.27,21.1,21.1,0,0,1,8.59,5.13,12.6,12.6,0,1,1-21.36,10.93l2.26-.82A10.26,10.26,0,1,0,168.79,186,19.43,19.43,0,0,0,162.32,181.83Z"/><path class="cls-1" d="M200,189.09H185.28l-5.93,16.31h-2.55l15.86-43.55,15.83,43.55H206Zm-.88-2.39-6.49-17.85-6.49,17.85Z"/><path class="cls-1" d="M213.8,205.4V162.83h2.39V203h16.5v2.39Z"/><path class="cls-1" d="M260.36,162.83v2.39H241.47v17.69h18.89v2.39H241.47V203h18.89v2.39H239.07V162.83Z"/><path class="cls-1" d="M267.67,162.83h2.63l21.87,37.86V162.83h2.39V205.4h-2.39l-22.11-38.23V205.4h-2.39Z"/><path class="cls-1" d="M313.06,165.23V205.4h-2.39V165.23H299.89v-2.39h23.94v2.39Z"/><path class="cls-1" d="M332.08,162.83V205.4h-2.39V162.83Z"/><path class="cls-1" d="M351.18,181.83a18,18,0,0,1-7.18-4.15A9,9,0,0,1,356.77,165a7.57,7.57,0,0,1,2,3.17l-2.15.85a6.62,6.62,0,0,0-1.57-2.39A6.63,6.63,0,0,0,345.7,176a17.83,17.83,0,0,0,5,3.27,21.1,21.1,0,0,1,8.59,5.13,12.6,12.6,0,1,1-21.36,10.93l2.26-.82A10.26,10.26,0,1,0,357.65,186,19.42,19.42,0,0,0,351.18,181.83Z"/><rect class="cls-1" x="0.25" width="501.49" height="1"/><rect class="cls-1" x="0.25" y="183.33" width="136.89" height="1.5"/><rect class="cls-1" x="374.95" y="183.33" width="126.79" height="1.5"/><path class="cls-2" d="M259.74,140a58.86,58.86,0,1,1,58.86-58.86A58.92,58.92,0,0,1,259.74,140Zm0-117.18a58.33,58.33,0,1,0,58.33,58.33A58.39,58.39,0,0,0,259.74,22.79Z"/><path class="cls-2" d="M263.17,140.24a59.12,59.12,0,1,1,59.12-59.12A59.19,59.19,0,0,1,263.17,140.24Zm0-117.18a58.06,58.06,0,1,0,58.06,58.06A58.13,58.13,0,0,0,263.17,23.06Z"/><path class="cls-2" d="M261.85,138.75A59.65,59.65,0,1,1,321.5,79.1,59.72,59.72,0,0,1,261.85,138.75Zm0-117.18A57.53,57.53,0,1,0,319.38,79.1,57.6,57.6,0,0,0,261.85,21.57Z"/><path class="cls-2" d="M223.92,95.86A42.88,42.88,0,1,1,281,116.25,42.92,42.92,0,0,1,223.92,95.86Zm77.14-36.55a42.49,42.49,0,1,0-20.2,56.59A42.54,42.54,0,0,0,301.06,59.31Z"/><path class="cls-2" d="M224.07,99a43.07,43.07,0,1,1,57.36,20.48A43.12,43.12,0,0,1,224.07,99ZM301.21,62.4a42.3,42.3,0,1,0-20.11,56.34A42.35,42.35,0,0,0,301.21,62.4Z"/><path class="cls-2" d="M225.38,96.87a43.45,43.45,0,1,1,57.88,20.66A43.5,43.5,0,0,1,225.38,96.87Zm77.14-36.55a41.91,41.91,0,1,0-19.93,55.82A42,42,0,0,0,302.53,60.32Z"/><path class="cls-2" d="M247.67,101.35a29.74,29.74,0,1,1,41.7-5.52A29.78,29.78,0,0,1,247.67,101.35Zm36-47a29.48,29.48,0,1,0,5.47,41.32A29.51,29.51,0,0,0,283.69,54.34Z"/><path class="cls-2" d="M249,102.51A29.88,29.88,0,1,1,290.86,97,29.91,29.91,0,0,1,249,102.51Zm36-47a29.34,29.34,0,1,0,5.44,41.14A29.37,29.37,0,0,0,285,55.51Z"/><path class="cls-2" d="M250,101.51a30.14,30.14,0,1,1,42.26-5.59A30.18,30.18,0,0,1,250,101.51Zm36-47a29.07,29.07,0,1,0,5.39,40.76A29.11,29.11,0,0,0,286,54.5Z"/><path class="cls-2" d="M255.26,94.61a22.33,22.33,0,1,1,31.31-4.14A22.36,22.36,0,0,1,255.26,94.61Zm26.79-35a21.71,21.71,0,1,0,4,30.44A21.74,21.74,0,0,0,282,59.65Z"/><circle class="cls-2" cx="269.96" cy="76.11" r="21.38"/></g></g></svg>