<svg xmlns="http://www.w3.org/2000/svg" xmlns:xlink="http://www.w3.org/1999/xlink" viewBox="0 0 539.04 203.08"><defs><style>.cls-1{fill:none;}.cls-2{fill:#515151;}.cls-3{opacity:0.49;}.cls-4{clip-path:url(#clip-path);}.cls-5{fill:url(#Degradado_sin_nombre_10);}.cls-6{fill:url(#Degradado_sin_nombre_12);}.cls-7{clip-path:url(#clip-path-2);}.cls-8{fill:url(#Degradado_sin_nombre_10-2);}.cls-9{fill:url(#Degradado_sin_nombre_12-2);}.cls-10{clip-path:url(#clip-path-3);}.cls-11{fill:url(#Degradado_sin_nombre_10-3);}.cls-12{fill:url(#Degradado_sin_nombre_12-3);}.cls-13{clip-path:url(#clip-path-4);}.cls-14{fill:url(#Degradado_sin_nombre_14);}.cls-15{fill:url(#Degradado_sin_nombre_16);}.cls-16{clip-path:url(#clip-path-5);}.cls-17{fill:url(#Degradado_sin_nombre_10-4);}.cls-18{fill:url(#Degradado_sin_nombre_12-4);}.cls-19{clip-path:url(#clip-path-6);}.cls-20{fill:url(#Degradado_sin_nombre_10-5);}.cls-21{fill:url(#Degradado_sin_nombre_12-5);}.cls-22{clip-path:url(#clip-path-7);}.cls-23{fill:url(#Degradado_sin_nombre_10-6);}.cls-24{fill:url(#Degradado_sin_nombre_12-6);}.cls-25{clip-path:url(#clip-path-8);}.cls-26{fill:url(#Degradado_sin_nombre_14-2);}.cls-27{fill:url(#Degradado_sin_nombre_16-2);}.cls-28{opacity:0.5;fill:url(#Degradado_sin_nombre_18);}.cls-29,.cls-30,.cls-31{opacity:0.46;}.cls-29{fill:url(#Degradado_sin_nombre_20);}.cls-30{fill:url(#Degradado_sin_nombre_18-2);}.cls-31{fill:url(#Degradado_sin_nombre_19);}.cls-32{opacity:0.3;}.cls-33{clip-path:url(#clip-path-9);}.cls-34{clip-path:url(#clip-path-10);}.cls-35{clip-path:url(#clip-path-11);}.cls-36{clip-path:url(#clip-path-12);}</style><clipPath id="clip-path"><path class="cls-1" d="M213.84,89.47l-46.27,56q-7.62-64-15.26-128l52.2-6.36Z"/></clipPath><linearGradient id="Degradado_sin_nombre_10" x1="220.87" y1="125.95" x2="207.33" y2="2.45" gradientTransform="matrix(0.99, 0.16, -0.11, 1.48, 9.98, -43.94)" gradientUnits="userSpaceOnUse"><stop offset="0.15" stop-color="#ff442f"/><stop offset="0.34" stop-color="#ee3927"/><stop offset="0.71" stop-color="#c01b12"/><stop offset="1" stop-color="#990100"/></linearGradient><linearGradient id="Degradado_sin_nombre_12" x1="224.72" y1="160.67" x2="211.18" y2="37.17" gradientTransform="matrix(0.99, 0.18, -0.11, 1.61, 14.83, -67.61)" gradientUnits="userSpaceOnUse"><stop offset="0.15" stop-color="#fff"/><stop offset="0.16" stop-color="#fff" stop-opacity="0.99"/><stop offset="0.26" stop-color="#fff" stop-opacity="0.76"/><stop offset="0.36" stop-color="#fff" stop-opacity="0.56"/><stop offset="0.47" stop-color="#fff" stop-opacity="0.39"/><stop offset="0.57" stop-color="#fff" stop-opacity="0.25"/><stop offset="0.68" stop-color="#fff" stop-opacity="0.14"/><stop offset="0.78" stop-color="#fff" stop-opacity="0.06"/><stop offset="0.89" stop-color="#fff" stop-opacity="0.02"/><stop offset="1" stop-color="#fff" stop-opacity="0"/></linearGradient><clipPath id="clip-path-2"><rect class="cls-1" x="39.83" y="71.33" width="111.8" height="89.22" rx="11.77" transform="translate(-12.61 11.68) rotate(-6.55)"/></clipPath><linearGradient id="Degradado_sin_nombre_10-2" x1="108.95" y1="182.66" x2="95.41" y2="59.16" gradientTransform="matrix(1.05, 0.11, -0.12, 1, 4.77, -10.85)" xlink:href="#Degradado_sin_nombre_10"/><linearGradient id="Degradado_sin_nombre_12-2" x1="112.42" y1="213.89" x2="98.88" y2="90.39" gradientTransform="matrix(1.05, 0.12, -0.12, 1.09, 8.05, -26.87)" xlink:href="#Degradado_sin_nombre_12"/><clipPath id="clip-path-3"><rect class="cls-1" x="27.65" y="30.84" width="23.89" height="34.73" rx="5.47" transform="translate(-5.24 4.83) rotate(-6.55)"/></clipPath><linearGradient id="Degradado_sin_nombre_10-3" x1="71.78" y1="128.28" x2="58.24" y2="4.78" gradientTransform="matrix(0.99, 0.05, -0.11, 0.43, 5.6, 18.2)" xlink:href="#Degradado_sin_nombre_10"/><linearGradient id="Degradado_sin_nombre_12-3" x1="75.76" y1="164.13" x2="62.22" y2="40.63" gradientTransform="matrix(0.99, 0.05, -0.11, 0.46, 6.99, 11.4)" xlink:href="#Degradado_sin_nombre_12"/><clipPath id="clip-path-4"><rect class="cls-1" x="58.43" y="25.19" width="82.05" height="34.73" rx="6.15" transform="translate(-4.21 11.63) rotate(-6.55)"/></clipPath><linearGradient id="Degradado_sin_nombre_14" x1="107.2" y1="126.33" x2="93.66" y2="2.83" gradientTransform="matrix(0.99, 0.05, -0.11, 0.43, 5.48, 14.28)" gradientUnits="userSpaceOnUse"><stop offset="0.15" stop-color="#94c193"/><stop offset="0.32" stop-color="#83b688"/><stop offset="0.64" stop-color="#559a6a"/><stop offset="1" stop-color="#1d7745"/></linearGradient><linearGradient id="Degradado_sin_nombre_16" x1="111.16" y1="162.01" x2="97.62" y2="38.51" gradientTransform="matrix(0.99, 0.05, -0.11, 0.46, 6.87, 7.49)" gradientUnits="userSpaceOnUse"><stop offset="0.15" stop-color="#bcd9ac"/><stop offset="0.2" stop-color="#c4ddb6" stop-opacity="0.88"/><stop offset="0.31" stop-color="#d3e6c9" stop-opacity="0.65"/><stop offset="0.43" stop-color="#e1eed9" stop-opacity="0.45"/><stop offset="0.54" stop-color="#ecf4e7" stop-opacity="0.29"/><stop offset="0.65" stop-color="#f4f9f2" stop-opacity="0.16"/><stop offset="0.77" stop-color="#fafcf9" stop-opacity="0.07"/><stop offset="0.88" stop-color="#fefefe" stop-opacity="0.02"/><stop offset="1" stop-color="#fff" stop-opacity="0"/></linearGradient><clipPath id="clip-path-5"><path class="cls-1" d="M207.72,87q-23.13,28-46.27,56-7.63-64-15.26-128l52.2-6.36Z"/></clipPath><linearGradient id="Degradado_sin_nombre_10-4" x1="214.9" y1="123.69" x2="201.36" y2="0.19" gradientTransform="matrix(0.99, 0.16, -0.11, 1.48, 9.54, -43.29)" xlink:href="#Degradado_sin_nombre_10"/><linearGradient id="Degradado_sin_nombre_12-4" x1="218.79" y1="158.64" x2="205.25" y2="35.15" gradientTransform="matrix(0.99, 0.18, -0.11, 1.61, 14.39, -66.96)" xlink:href="#Degradado_sin_nombre_12"/><clipPath id="clip-path-6"><rect class="cls-1" x="33.71" y="65.21" width="111.8" height="89.22" rx="11.77" transform="translate(-11.95 10.94) rotate(-6.55)"/></clipPath><linearGradient id="Degradado_sin_nombre_10-5" x1="103.1" y1="176.58" x2="89.56" y2="53.08" gradientTransform="matrix(1.05, 0.11, -0.12, 1, 4.06, -10.21)" xlink:href="#Degradado_sin_nombre_10"/><linearGradient id="Degradado_sin_nombre_12-5" x1="106.63" y1="208.34" x2="93.09" y2="84.84" gradientTransform="matrix(1.05, 0.12, -0.12, 1.09, 7.34, -26.23)" xlink:href="#Degradado_sin_nombre_12"/><clipPath id="clip-path-7"><rect class="cls-1" x="23.97" y="28.39" width="23.89" height="34.73" rx="5.47" transform="translate(-4.99 4.4) rotate(-6.55)"/></clipPath><linearGradient id="Degradado_sin_nombre_10-6" x1="67.69" y1="122.07" x2="54.15" y2="-1.43" gradientTransform="matrix(0.99, 0.05, -0.11, 0.43, 5.31, 18.59)" xlink:href="#Degradado_sin_nombre_10"/><linearGradient id="Degradado_sin_nombre_12-6" x1="71.73" y1="158.44" x2="58.19" y2="34.94" gradientTransform="matrix(0.99, 0.05, -0.11, 0.46, 6.7, 11.79)" xlink:href="#Degradado_sin_nombre_12"/><clipPath id="clip-path-8"><rect class="cls-1" x="54.76" y="21.52" width="82.05" height="34.73" rx="6.15" transform="translate(-3.81 11.19) rotate(-6.55)"/></clipPath><linearGradient id="Degradado_sin_nombre_14-2" x1="102.93" y1="117.27" x2="89.39" y2="-6.23" gradientTransform="matrix(0.99, 0.05, -0.11, 0.43, 5.05, 14.66)" xlink:href="#Degradado_sin_nombre_14"/><linearGradient id="Degradado_sin_nombre_16-2" x1="106.98" y1="153.71" x2="93.44" y2="30.21" gradientTransform="matrix(0.99, 0.05, -0.11, 0.46, 6.44, 7.87)" xlink:href="#Degradado_sin_nombre_16"/><linearGradient id="Degradado_sin_nombre_18" x1="33.74" y1="28.8" x2="38.81" y2="66.08" gradientUnits="userSpaceOnUse"><stop offset="0" stop-color="#fff"/><stop offset="0.01" stop-color="#fff" stop-opacity="0.99"/><stop offset="0.13" stop-color="#fff" stop-opacity="0.76"/><stop offset="0.25" stop-color="#fff" stop-opacity="0.56"/><stop offset="0.37" stop-color="#fff" stop-opacity="0.39"/><stop offset="0.5" stop-color="#fff" stop-opacity="0.25"/><stop offset="0.62" stop-color="#fff" stop-opacity="0.14"/><stop offset="0.74" stop-color="#fff" stop-opacity="0.06"/><stop offset="0.87" stop-color="#fff" stop-opacity="0.02"/><stop offset="1" stop-color="#fff" stop-opacity="0"/></linearGradient><linearGradient id="Degradado_sin_nombre_20" x1="93.6" y1="19.7" x2="99.93" y2="75.44" gradientUnits="userSpaceOnUse"><stop offset="0.05" stop-color="#fff"/><stop offset="0.06" stop-color="#fff" stop-opacity="0.99"/><stop offset="0.17" stop-color="#fff" stop-opacity="0.76"/><stop offset="0.29" stop-color="#fff" stop-opacity="0.56"/><stop offset="0.41" stop-color="#fff" stop-opacity="0.39"/><stop offset="0.52" stop-color="#fff" stop-opacity="0.25"/><stop offset="0.64" stop-color="#fff" stop-opacity="0.14"/><stop offset="0.76" stop-color="#fff" stop-opacity="0.06"/><stop offset="0.88" stop-color="#fff" stop-opacity="0.02"/><stop offset="1" stop-color="#fff" stop-opacity="0"/></linearGradient><linearGradient id="Degradado_sin_nombre_18-2" x1="173.18" y1="11.04" x2="186.83" y2="129.88" gradientTransform="matrix(1.01, 0, 0, 1, -2.6, -0.29)" xlink:href="#Degradado_sin_nombre_18"/><linearGradient id="Degradado_sin_nombre_19" x1="83.87" y1="62.61" x2="98.96" y2="181.25" gradientTransform="matrix(0.99, 0, 0, 1, 0.68, -0.08)" gradientUnits="userSpaceOnUse"><stop offset="0" stop-color="#fff"/><stop offset="0.01" stop-color="#fff" stop-opacity="0.99"/><stop offset="0.13" stop-color="#fff" stop-opacity="0.76"/><stop offset="0.25" stop-color="#fff" stop-opacity="0.56"/><stop offset="0.37" stop-color="#fff" stop-opacity="0.39"/><stop offset="0.49" stop-color="#fff" stop-opacity="0.25"/><stop offset="0.61" stop-color="#fff" stop-opacity="0.14"/><stop offset="0.74" stop-color="#fff" stop-opacity="0.06"/><stop offset="0.86" stop-color="#fff" stop-opacity="0.02"/><stop offset="0.99" stop-color="#fff" stop-opacity="0"/></linearGradient><clipPath id="clip-path-9"><path class="cls-2" d="M103.67,159.8q-1.29-3.86-2.6-7.71a36.43,36.43,0,0,0,12.29-3.43,23.25,23.25,0,0,0,7.92-5.84c2.14-2.5,2.5-4.16,2.61-4.9a8.85,8.85,0,0,0-1-5.42c-1.24-2.31-3.11-3.46-5.32-4.79-9.11-5.46-9.71-5.43-12-7.19-3.27-2.54-5.85-4.54-6.88-8.13C97.14,107,100.16,102,101,100.62a21.82,21.82,0,0,1,4.89-5.42,44.85,44.85,0,0,1,12.51-7.81,46.73,46.73,0,0,1,8.75-2.71l2.92,7.6a49.5,49.5,0,0,0-10.48,2.87,26.81,26.81,0,0,0-7.45,4.27,10.48,10.48,0,0,0-3,3.65,7.62,7.62,0,0,0-.83,4.32,7.75,7.75,0,0,0,1.62,3.69c1.07,1.52,2.35,2.65,5.28,4.54,1.75,1.14,2.73,1.66,6.46,3.76,5.38,3,5.92,3.37,6.72,4.06a15.48,15.48,0,0,1,4.48,5.73A14.79,14.79,0,0,1,133,139.8a18.07,18.07,0,0,1-3,5,33.17,33.17,0,0,1-7,6.88,39.14,39.14,0,0,1-8.54,4.58A64.63,64.63,0,0,1,103.67,159.8Z"/></clipPath><clipPath id="clip-path-10"><path class="cls-2" d="M178,94.82h-.5L144.59,155l7.15,4.8,10.37-21.92,31.67-.47,12.29,22,8-4.69Zm12.61,37.32-25.6.23,0-.31s12.15-23.47,12.15-23.48l1,0,12.72,22.7C190.79,131.59,190.71,131.87,190.64,132.14Z"/></clipPath><clipPath id="clip-path-11"><path class="cls-1" d="M96.33,151.23l-2.61-7.71a36.57,36.57,0,0,0,12.3-3.43,23.36,23.36,0,0,0,7.92-5.84c2.13-2.5,2.49-4.16,2.6-4.9a8.76,8.76,0,0,0-1-5.42c-1.24-2.31-3.1-3.47-5.31-4.79-9.11-5.46-9.72-5.43-12-7.19-3.27-2.54-5.85-4.54-6.87-8.13-1.54-5.35,1.49-10.42,2.29-11.77a22.07,22.07,0,0,1,4.9-5.42A44.49,44.49,0,0,1,111,78.82a46.73,46.73,0,0,1,8.75-2.71l2.92,7.6a49.38,49.38,0,0,0-10.47,2.87,26.53,26.53,0,0,0-7.45,4.27,10.41,10.41,0,0,0-3,3.65,7.62,7.62,0,0,0-.83,4.32,7.85,7.85,0,0,0,1.62,3.69c1.07,1.52,2.35,2.65,5.28,4.54,1.75,1.14,2.73,1.66,6.46,3.75,5.38,3,5.93,3.38,6.72,4.07a15.28,15.28,0,0,1,4.48,5.73,14.81,14.81,0,0,1,.16,10.63,18.31,18.31,0,0,1-3,5,33.68,33.68,0,0,1-7,6.88,39.43,39.43,0,0,1-8.55,4.58A64.47,64.47,0,0,1,96.33,151.23Z"/></clipPath><clipPath id="clip-path-12"><path class="cls-1" d="M170.69,86.25h-.51l-32.94,60.22,7.15,4.8q5.19-11,10.37-21.92l31.68-.47,12.28,22,8-4.69Q188.7,116.25,170.69,86.25Zm12.6,37.32-25.59.23,0-.31L169.83,100l1,0,12.71,22.7C183.45,123,183.37,123.3,183.29,123.57Z"/></clipPath></defs><title>Recurso 1Ads</title><g id="Capa_2" data-name="Capa 2"><g id="Capa_4" data-name="Capa 4"><g class="cls-3"><g class="cls-4"><rect class="cls-5" x="158.32" y="9.59" width="114.75" height="137.81" transform="translate(-7.35 24.29) rotate(-6.34)"/><rect class="cls-6" x="163.17" y="47.23" width="114.75" height="149.79" transform="translate(-12.13 25.09) rotate(-6.34)"/></g></g><g class="cls-3"><g class="cls-7"><rect class="cls-8" x="37.21" y="69.85" width="120.69" height="93.29" transform="translate(-12.26 11.48) rotate(-6.34)"/><rect class="cls-9" x="40.49" y="95.34" width="120.69" height="101.39" transform="translate(-15.5 12.02) rotate(-6.34)"/></g></g><g class="cls-3"><g class="cls-10"><rect class="cls-11" x="5.51" y="27.5" width="114.75" height="39.55" transform="translate(-4.83 7.23) rotate(-6.34)"/><rect class="cls-12" x="6.9" y="38.31" width="114.75" height="42.99" transform="translate(-6.21 7.46) rotate(-6.34)"/></g></g><g class="cls-3"><g class="cls-13"><rect class="cls-14" x="40.8" y="24.43" width="114.75" height="39.55" transform="translate(-4.28 11.11) rotate(-6.34)"/><rect class="cls-15" x="42.19" y="35.24" width="114.75" height="42.99" transform="translate(-5.65 11.34) rotate(-6.34)"/></g></g><g class="cls-16"><rect class="cls-17" x="152.2" y="5.91" width="114.75" height="137.81" transform="translate(-6.98 23.59) rotate(-6.34)"/><rect class="cls-18" x="157.04" y="43.56" width="114.75" height="149.79" transform="translate(-11.77 24.39) rotate(-6.34)"/></g><g class="cls-19"><rect class="cls-20" x="31.09" y="63.73" width="120.69" height="93.29" transform="translate(-11.63 10.77) rotate(-6.34)"/><rect class="cls-21" x="34.37" y="89.22" width="120.69" height="101.39" transform="translate(-14.87 11.31) rotate(-6.34)"/></g><g class="cls-22"><rect class="cls-23" x="1.83" y="25.06" width="114.75" height="39.55" transform="translate(-4.59 6.81) rotate(-6.34)"/><rect class="cls-24" x="3.22" y="35.86" width="114.75" height="42.99" transform="translate(-5.96 7.04) rotate(-6.34)"/></g><g class="cls-25"><rect class="cls-26" x="37.13" y="20.76" width="114.75" height="39.55" transform="translate(-3.9 10.68) rotate(-6.34)"/><rect class="cls-27" x="38.52" y="31.56" width="114.75" height="42.99" transform="translate(-5.27 10.91) rotate(-6.34)"/></g><path class="cls-28" d="M43,46.25c-.11-.19-2.09-3.8-6-4a7.56,7.56,0,0,0-7.4,5.19A3.85,3.85,0,0,1,27,46.89a4.26,4.26,0,0,1-1.58-2A5.31,5.31,0,0,1,25,43.32l-.82-6.82a5.35,5.35,0,0,1,4.67-6l10.42-1.26a5.37,5.37,0,0,1,6,4.68L46,40.78a5.66,5.66,0,0,1-1.1,3.95A5.37,5.37,0,0,1,43,46.25Z"/><path class="cls-29" d="M129.12,42.85A54.87,54.87,0,0,0,64.4,50.67a6.75,6.75,0,0,1-4.87-1.37,6.57,6.57,0,0,1-2.48-4.4L55.79,34.45a6.61,6.61,0,0,1,5.77-7.35l64.71-7.81a6.6,6.6,0,0,1,7.35,5.77l1.26,10.44A6.6,6.6,0,0,1,129.12,42.85Z"/><path class="cls-30" d="M205.59,85.8,163.3,136.16Q156.16,76.43,149,16.72L196.56,11Z"/><path class="cls-31" d="M131.28,128.85c-2.51-2.28-17-15-38.49-13.41C68.65,117.26,55.66,135.76,54,138.18a14,14,0,0,1-15.58-12.35L33.87,88.09a13.71,13.71,0,0,1,11.9-15.31l77.95-9.41a13.7,13.7,0,0,1,15.2,12l4.56,37.74A14.07,14.07,0,0,1,131.28,128.85Z"/><g class="cls-32"><path class="cls-2" d="M392.74,97.69c-.85,21-1.68,41.71-2.55,63.14L342.41,112l-1.49.87v46.35l-9.69-.63Q333,126.4,334.66,94.7l48.81,47.84V97.23Z"/><path class="cls-2" d="M312.47,151.75c.17,2.69.31,4.94.45,7.16H280.19V97.71L310.91,96c.18,2.6.34,4.8.53,7.52h-22v21h18.86c.13,2.11.27,4.32.43,6.88H289.63v20.28Z"/><path class="cls-2" d="M437.63,158.61H427.54V105.22H402.92V98.05h58.52v7.17H436.52C436.89,122.8,437.26,140.53,437.63,158.61Z"/><path class="cls-2" d="M510.25,160.1,508,153.36c3.57-1.07,7-1.9,10.34-3.16a32.08,32.08,0,0,0,7.58-3.93c4.55-3.32,4.53-8.3,0-11.7a70.38,70.38,0,0,0-6.48-3.79,91.25,91.25,0,0,1-9.39-5.87c-5.53-4.36-6.1-10-1.79-15.73,3.95-5.23,9.51-8.27,15.48-10.57,2.86-1.1,5.86-1.8,9.14-2.79.72,2.63,1.3,4.77,1.95,7.16-1.63.41-3.12.69-4.55,1.16a77.57,77.57,0,0,0-8.74,3.13c-3.29,1.54-6.51,3.62-6.56,7.78,0,3.84,3.35,5.21,6.09,6.84,3.79,2.26,7.75,4.25,11.45,6.65,7.49,4.85,8.47,12,2.8,18.87C530.34,153.54,521.14,158.24,510.25,160.1Z"/><path class="cls-2" d="M229.43,97.85H239v53.62H261.8v7.46H229.43Z"/><path class="cls-2" d="M474.45,158.45V97.93h9.29v60.52Z"/><path class="cls-2" d="M103.67,159.8q-1.29-3.86-2.6-7.71a36.43,36.43,0,0,0,12.29-3.43,23.25,23.25,0,0,0,7.92-5.84c2.14-2.5,2.5-4.16,2.61-4.9a8.85,8.85,0,0,0-1-5.42c-1.24-2.31-3.11-3.46-5.32-4.79-9.11-5.46-9.71-5.43-12-7.19-3.27-2.54-5.85-4.54-6.88-8.13C97.14,107,100.16,102,101,100.62a21.82,21.82,0,0,1,4.89-5.42,44.85,44.85,0,0,1,12.51-7.81,46.73,46.73,0,0,1,8.75-2.71l2.92,7.6a49.5,49.5,0,0,0-10.48,2.87,26.81,26.81,0,0,0-7.45,4.27,10.48,10.48,0,0,0-3,3.65,7.62,7.62,0,0,0-.83,4.32,7.75,7.75,0,0,0,1.62,3.69c1.07,1.52,2.35,2.65,5.28,4.54,1.75,1.14,2.73,1.66,6.46,3.76,5.38,3,5.92,3.37,6.72,4.06a15.48,15.48,0,0,1,4.48,5.73A14.79,14.79,0,0,1,133,139.8a18.07,18.07,0,0,1-3,5,33.17,33.17,0,0,1-7,6.88,39.14,39.14,0,0,1-8.54,4.58A64.63,64.63,0,0,1,103.67,159.8Z"/><g class="cls-33"><rect class="cls-2" x="67.99" y="59.25" width="107.62" height="125.98"/></g><path class="cls-2" d="M178,94.82h-.5L144.59,155l7.15,4.8,10.37-21.92,31.67-.47,12.29,22,8-4.69Zm12.61,37.32-25.6.23,0-.31s12.15-23.47,12.15-23.48l1,0,12.72,22.7C190.79,131.59,190.71,131.87,190.64,132.14Z"/><g class="cls-34"><rect class="cls-2" x="121.81" y="62.27" width="107.62" height="125.98"/></g></g><path d="M385.4,89.12c-.85,21-1.69,41.71-2.55,63.14l-47.79-48.83-1.48.87v46.34l-9.7-.62q1.74-32.19,3.44-63.89L376.12,134V88.66Z"/><path d="M305.12,143.18c.17,2.69.32,4.94.46,7.16H272.84V89.14l30.72-1.68c.19,2.6.34,4.8.54,7.52h-22v21H301c.13,2.11.26,4.32.42,6.88H282.28v20.28Z"/><path d="M430.29,150h-10.1V96.65H395.57V89.48h58.52v7.17H429.18C429.54,114.23,429.91,132,430.29,150Z"/><path d="M502.9,151.52c-.75-2.27-1.45-4.4-2.21-6.73,3.57-1.07,7-1.9,10.33-3.16a32.34,32.34,0,0,0,7.59-3.93c4.55-3.32,4.52-8.3,0-11.7a71.56,71.56,0,0,0-6.47-3.79,89.14,89.14,0,0,1-9.39-5.87c-5.54-4.36-6.1-10-1.8-15.73,4-5.23,9.52-8.27,15.49-10.57,2.85-1.1,5.86-1.8,9.13-2.79.72,2.63,1.3,4.76,1.95,7.16-1.63.41-3.12.69-4.55,1.16a78.12,78.12,0,0,0-8.73,3.13c-3.3,1.54-6.52,3.62-6.57,7.78,0,3.84,3.35,5.21,6.09,6.84,3.79,2.26,7.76,4.25,11.46,6.64,7.48,4.86,8.47,12,2.8,18.88C523,145,513.79,149.67,502.9,151.52Z"/><path d="M222.08,89.28h9.61V142.9h22.77v7.46H222.08Z"/><path d="M467.11,149.88V89.36h9.29v60.52Z"/><g class="cls-35"><rect x="60.65" y="50.68" width="107.62" height="125.98"/></g><g class="cls-36"><rect x="114.46" y="53.7" width="107.62" height="125.98"/></g></g></g></svg>