<svg xmlns="http://www.w3.org/2000/svg" viewBox="0 0 431.51 87.05"><defs><style>.cls-1{fill:#fff;}</style></defs><title>Logo Salentis BLANCO</title><g id="Capa_2" data-name="Capa 2"><g id="Logos_en_curvas" data-name="Logos en curvas"><path class="cls-1" d="M391.09,2.72a34.44,34.44,0,0,1,14.06-2c8.58.35,15.46,3.31,20.6,8.87l-5.62,5.13c-3.72-4-8.86-6.19-15.32-6.47-5.49-.21-10.06.7-13.71,2.81Z"/><polygon class="cls-1" points="386.24 10.38 347.79 71.37 356.71 71.37 360.93 64.75 420.34 64.41 415.77 57.16 365.71 57.16 390.74 17.56 386.24 10.38"/><path class="cls-1" d="M393.69,2.72l37.82,62c-.29,6.12-8.09,12.31-13.78,16-6.25,4-18,6.4-25.94,6-9.42-.42-15.32-1.12-22.15-4.56-5.2-2.6-9.42-5.85-10.83-8.44l4-6.26A34.32,34.32,0,0,0,374,75.94c3.31,1.76,14.28,3.1,18.14,3.31,5.84.21,15.26-2,20.81-4.43,4-1.83,10.69-6.4,11-10.06-27.63-43.82-6.9-11.11-36-57l3.17-5Z"/><path class="cls-1" d="M20.46,64.9a5.61,5.61,0,0,1-1.13-.08A24,24,0,0,1,8,61.59a17,17,0,0,1-7.95-9l5.48-2a12.17,12.17,0,0,0,5.76,6.19,20.56,20.56,0,0,0,8.22,2.25,16.67,16.67,0,0,0,11.39-3.45,10.55,10.55,0,0,0,4.29-7.74c.21-5.48-4.84-9.78-15.25-12.66C12.44,33.1,7.1,30.15,3.87,26.43A13.67,13.67,0,0,1,.42,16.72C.7,10.67,3.24,6.16,8.16,3.14A24.29,24.29,0,0,1,22.21,0C28.82.33,34.1,2.58,38,6.87l-4.29,4C30.86,7.71,26.92,6.1,21.93,5.81Q15.4,5.6,11.18,8.13C8.09,10,6.47,13,6.26,17,6,22.41,11.11,26.64,21.52,29.52c7.52,2.11,12.86,5.07,16.09,8.87a13.71,13.71,0,0,1,3.45,9.78,15.92,15.92,0,0,1-6.47,12A21.58,21.58,0,0,1,20.46,64.9ZM85.49.61,45.2,64.26h7L62.22,48.37H87.46V64.26h5.76V.61Zm2,7.81v34H65.88ZM103.91.61V64.26h35.43V58.43h-29.6V.61Zm43.58,0V64.26H180V58.43H153.33V35.29h21V29.45h-21v-23H180V.61ZM226,.61v53L194.24.61h-6.32V64.26h5.84V11.16l31.77,53.1h6.26V.61Zm13.43,0V6.45H256V64.26h5.91V6.45h16.66V.61Zm45.06,63.65h5.84V.26h-5.84Zm32,.64a6,6,0,0,1-1.13-.08A24.15,24.15,0,0,1,304,61.59a17.24,17.24,0,0,1-8-9l5.55-2a11.64,11.64,0,0,0,5.76,6.19,20.58,20.58,0,0,0,8.23,2.25,16.48,16.48,0,0,0,11.31-3.45,10.35,10.35,0,0,0,4.29-7.74c.21-5.48-4.86-9.78-15.26-12.66-7.45-2.11-12.86-5.06-16-8.79a13.71,13.71,0,0,1-3.52-9.71c.28-6.05,2.88-10.56,7.73-13.58A24.43,24.43,0,0,1,318.19,0C324.8.33,330.07,2.58,334,6.87l-4.29,4C326.91,7.71,323,6.1,317.9,5.81a19.31,19.31,0,0,0-10.69,2.32C304.06,10,302.43,13,302.3,17c-.28,5.42,4.86,9.64,15.25,12.52q11.18,3.17,16,8.87a14.08,14.08,0,0,1,3.51,9.78,16.22,16.22,0,0,1-6.54,12,21.57,21.57,0,0,1-14.13,4.71Z"/><path class="cls-1" d="M2.11,80.3v6.33H0V73H2.11v5.27h9.57V73h2.18V86.63H11.68V80.3ZM27,81.36h5.34l-2.66-5.21Zm-4.92,5.27L29,73h1.34l7,13.65H35.08l-1.82-3.45H26.08l-1.76,3.45Zm38-3.3a7.74,7.74,0,0,1-3.09,2.74,9.37,9.37,0,0,1-4.29,1,8.76,8.76,0,0,1-5.91-2,6.56,6.56,0,0,1-2.32-5.15,6.7,6.7,0,0,1,2.32-5.2,8.76,8.76,0,0,1,5.91-2,9.89,9.89,0,0,1,4.08.84,7,7,0,0,1,2.88,2.39L57.93,77a5.36,5.36,0,0,0-2.18-1.76,7.43,7.43,0,0,0-3.09-.63,6.57,6.57,0,0,0-4.36,1.47,4.79,4.79,0,0,0-1.69,3.73,4.54,4.54,0,0,0,1.76,3.73,6,6,0,0,0,4.29,1.54,7.08,7.08,0,0,0,3.24-.77,6.36,6.36,0,0,0,2.39-2.18Zm9.78,3.3V73h12.8v2H71.92V78.4h7v2h-7v4.29H83.17v2Zm22.64,0V73h1.76l5.62,8,5.55-8h1.75V86.63H105V76.85l-5.2,7.53-5.27-7.53v9.78Zm32.76-1.55a6.46,6.46,0,0,0,4.42-1.47,4.9,4.9,0,0,0,0-7.53,7.39,7.39,0,0,0-8.85,0,5,5,0,0,0,0,7.53,6.46,6.46,0,0,0,4.43,1.47Zm0,2a8.94,8.94,0,0,1-6-2,6.7,6.7,0,0,1-2.32-5.21,6.56,6.56,0,0,1,2.32-5.14,8.81,8.81,0,0,1,6-2,9.14,9.14,0,0,1,6,2,6.58,6.58,0,0,1,2.32,5.14A6.71,6.71,0,0,1,131.26,85a9.14,9.14,0,0,1-6,2Zm16.87-2.18,1.06-1.75a12.19,12.19,0,0,0,3,1.47,10.61,10.61,0,0,0,3.24.49,5,5,0,0,0,2.88-.7,2.16,2.16,0,0,0,1.12-1.9,1.84,1.84,0,0,0-1-1.75,8.26,8.26,0,0,0-3.23-.64,11.85,11.85,0,0,1-5.13-.84,3,3,0,0,1-1.34-2.74,3.35,3.35,0,0,1,1.48-2.81,7.17,7.17,0,0,1,4.09-1.06,11.31,11.31,0,0,1,3.44.49,12.64,12.64,0,0,1,3.17,1.48l-1.06,1.75A12.21,12.21,0,0,0,151.08,75a10.11,10.11,0,0,0-2.81-.42,4.78,4.78,0,0,0-2.47.49,1.65,1.65,0,0,0-1,1.41,1.41,1.41,0,0,0,1,1.33,11,11,0,0,0,3.24.36A8.45,8.45,0,0,1,154,79.32a3.6,3.6,0,0,1,1.68,3.23A3.85,3.85,0,0,1,154,85.79a7.12,7.12,0,0,1-4.36,1.27,15,15,0,0,1-3.94-.57,13.5,13.5,0,0,1-3.58-1.61Zm37.68,1.76V74.89h-5.7V73h13.57v1.9h-5.76V86.63Zm16.3-13.58h2.11v8.73a3,3,0,0,0,.91,2.6c.63.49,1.83.7,3.65.7s3.09-.21,3.73-.7a3.22,3.22,0,0,0,.91-2.6V73.05h2.11v9.29a4.17,4.17,0,0,1-1.62,3.59c-1.06.77-2.74,1.13-5.13,1.13s-4.08-.35-5.13-1.13a4,4,0,0,1-1.55-3.59ZM231.3,86.63V73h2.11V84.66h10.12v2Zm20.94-13.58h2.11v8.73a3,3,0,0,0,.92,2.6c.64.49,1.83.7,3.65.7s3.1-.21,3.73-.7a3.2,3.2,0,0,0,.92-2.6V73.05h2.11v9.29a4.18,4.18,0,0,1-1.62,3.59c-1.06.77-2.74,1.13-5.14,1.13s-4.08-.35-5.13-1.13a4,4,0,0,1-1.55-3.59Zm33.6,8.31v-2h5.63v4.08a8.1,8.1,0,0,1-3.09,2.67,9.88,9.88,0,0,1-4.43.91,9.06,9.06,0,0,1-6.12-2,6.41,6.41,0,0,1-2.39-5.15,6.54,6.54,0,0,1,2.39-5.2,9.33,9.33,0,0,1,6.12-2,10.11,10.11,0,0,1,4.22.84,7.67,7.67,0,0,1,3,2.39L289.58,77a6.89,6.89,0,0,0-2.39-1.76,8.15,8.15,0,0,0-3.24-.63,7,7,0,0,0-4.57,1.47,4.65,4.65,0,0,0-1.76,3.73,4.77,4.77,0,0,0,1.76,3.79,7,7,0,0,0,4.57,1.47,8.07,8.07,0,0,0,3.24-.63,4.68,4.68,0,0,0,2.11-1.62V81.36Zm18.07,0h5.27l-2.6-5.21ZM299,86.63,305.88,73h1.34l7,13.65h-2.25l-1.76-3.45H303l-1.76,3.45Zm25.66-8h7.24a2.57,2.57,0,0,0,1.69-.49,1.71,1.71,0,0,0,.56-1.34,1.87,1.87,0,0,0-.56-1.41A3,3,0,0,0,331.9,75h-7.24Zm0,2v6h-2.11V73.05h9.35a5,5,0,0,1,3.23,1,3.86,3.86,0,0,1,.28,5.28A4,4,0,0,1,333,80.65l3.79,6h-2.32l-3.87-6Z"/></g></g></svg>