<svg xmlns="http://www.w3.org/2000/svg" viewBox="0 0 279.19 88.27"><defs><style>.cls-1{fill:#a0c2d7;}.cls-2,.cls-3,.cls-7{fill:#201f20;}.cls-3{font-size:19.33px;}.cls-3,.cls-7{font-family:Kiona-Regular, Kiona;}.cls-4{letter-spacing:-0.03em;}.cls-5{letter-spacing:-0.01em;}.cls-6{letter-spacing:0em;}.cls-7{font-size:61.9px;}.cls-8{letter-spacing:0.01em;}.cls-9{letter-spacing:-0.03em;}</style></defs><title>Logo Novum</title><g id="Capa_2" data-name="Capa 2"><g id="Logos_en_curvas" data-name="Logos en curvas"><polygon class="cls-1" points="32.8 68.83 32.8 7.38 25.52 2.15 25.52 64.39 32.8 68.83"/><polygon class="cls-1" points="39.67 72.12 39.67 12.31 33.63 7.97 33.63 68.83 39.67 72.12"/><polygon class="cls-1" points="45.42 73.37 45.42 16.45 40.34 12.81 40.34 72.33 45.42 73.37"/><polygon class="cls-1" points="50.34 75.46 50.34 19.98 45.99 16.86 45.99 73.79 50.34 75.46"/><path class="cls-2" d="M118.19,85.18c-33.2,0-67.3-7.7-92.66-20.79,0-9.32,0-62.23,0-62.23L0,20.33V56.1C28.16,76,69.58,88.27,111.5,88.27c31.69,0,61.17-7,85.84-19C174.1,79.36,147.06,85.18,118.19,85.18ZM15.51,15.34l3.36-2.16v5.38l-3.36,1.93ZM3.72,22.91l2.4-1.54v4.52l-2.4,1.38Zm2.5,22.5-2.4.69V41.73l2.4-.85Zm0-9.79-2.4,1V32.29l2.4-1.2ZM9.13,19.44l2.82-1.81v4.91L9.13,24.16ZM12.07,33.1,9.24,34.32V29.59l2.83-1.41Zm7.25,31.19Q16.5,62.67,13.77,61V50l5.55-1.59Z"/><text class="cls-3" transform="translate(59.07 15.33) scale(0.92 1)"><tspan class="cls-4">S</tspan><tspan x="11.25" y="0">AL</tspan><tspan class="cls-5" x="35.91" y="0">E</tspan><tspan class="cls-6" x="47.35" y="0">N</tspan><tspan x="60.35" y="0">TIS</tspan></text><text class="cls-7" transform="translate(54.45 60.95)"><tspan class="cls-8">N</tspan><tspan class="cls-9" x="42.58" y="0">O</tspan><tspan x="87.27" y="0">VUM</tspan></text></g></g></svg>