<svg xmlns="http://www.w3.org/2000/svg" viewBox="0 0 273.49 86.11"><defs><style>.cls-1{fill:#a0c2d7;}.cls-2{fill:#201f20;}</style></defs><title>Logo_Novum_CORREGIDO</title><g id="Capa_2" data-name="Capa 2"><g id="Logos_en_curvas" data-name="Logos en curvas"><polygon class="cls-1" points="32.8 66.68 32.8 5.23 25.52 0 25.52 62.23 32.8 66.68"/><polygon class="cls-1" points="39.67 69.97 39.67 10.16 33.63 5.82 33.63 66.68 39.67 69.97"/><polygon class="cls-1" points="45.42 71.22 45.42 14.3 40.34 10.65 40.34 70.18 45.42 71.22"/><polygon class="cls-1" points="50.34 73.31 50.34 17.83 45.99 14.7 45.99 71.64 50.34 73.31"/><path class="cls-2" d="M118.19,83c-33.2,0-67.3-7.7-92.66-20.79,0-9.32,0-62.23,0-62.23L0,18.17V54C28.16,73.88,69.58,86.11,111.5,86.11c31.69,0,61.17-7,85.84-19C174.1,77.21,147.06,83,118.19,83ZM15.51,13.18,18.87,11V16.4l-3.36,1.93ZM3.72,20.76l2.4-1.54v4.52l-2.4,1.38Zm2.5,22.5L3.81,44V39.58l2.4-.85Zm0-9.79-2.4,1V30.14l2.4-1.2ZM9.13,17.28l2.82-1.81v4.91L9.13,22Zm2.94,13.67L9.24,32.17V27.44L12.07,26Zm7.25,31.19q-2.82-1.62-5.55-3.32V47.9l5.55-1.59Z"/><path class="cls-2" d="M68.22,8.32a2.88,2.88,0,0,1,.45,1.56,3,3,0,0,1-.32,1.36,3.33,3.33,0,0,1-.93,1.13,4.61,4.61,0,0,1-2.9,1A4.89,4.89,0,0,1,63,13.09a4.4,4.4,0,0,1-1.34-.71,3.24,3.24,0,0,1-1.23-2l.77-.46a2.23,2.23,0,0,0,1,1.74,3.24,3.24,0,0,0,1.09.59,4.23,4.23,0,0,0,1.32.2,3.7,3.7,0,0,0,2.41-.79,2.22,2.22,0,0,0,.94-1.78,2,2,0,0,0-.35-1.12,2.92,2.92,0,0,0-1-.89,6.4,6.4,0,0,0-2.1-.52l-.9-.15a4.51,4.51,0,0,1-1.33-.42,3.64,3.64,0,0,1-1.37-1.23,3,3,0,0,1-.5-1.65,2.85,2.85,0,0,1,.33-1.34,3.5,3.5,0,0,1,.94-1.11A4.41,4.41,0,0,1,63,.72,4.91,4.91,0,0,1,64.52.47a4.61,4.61,0,0,1,2.9,1,3.18,3.18,0,0,1,1.21,2l-.77.46a2.1,2.1,0,0,0-.26-.93,2.76,2.76,0,0,0-.69-.81,3.45,3.45,0,0,0-1.1-.59,4.18,4.18,0,0,0-1.3-.2,4.26,4.26,0,0,0-1.31.2,3.23,3.23,0,0,0-1.1.59,2.72,2.72,0,0,0-.71.82,1.92,1.92,0,0,0-.25.94,2.07,2.07,0,0,0,.41,1.19,2.92,2.92,0,0,0,1,.92,3,3,0,0,0,.83.28q.45.09,1.17.18l.62.1a7.6,7.6,0,0,1,1,.21,3.33,3.33,0,0,1,.78.33A3.83,3.83,0,0,1,68.22,8.32Z"/><path class="cls-2" d="M72.59,10l-1.37,3.19h-.89L75.78.47l5.15,12.72h-.87L78.76,10Zm3.15-7.38L73,9.13H78.4Z"/><path class="cls-2" d="M83.44,13.18V.62h.8V12.31h6.5v.87Z"/><path class="cls-2" d="M93.79,13.18V.62h7.5v.89H94.6V6.46h5.22v.89H94.6v4.93h6.7v.91Z"/><path class="cls-2" d="M105.16,3v10.2h-.8V.47l8,10.4V.62h.8V13.4Z"/><path class="cls-2" d="M125.67.62v.89h-4.58V13.18h-.82V1.51h-4.6V.62Z"/><path class="cls-2" d="M128.47,13.18V.62h.8V13.18Z"/><path class="cls-2" d="M140.25,8.32a2.88,2.88,0,0,1,.45,1.56,3,3,0,0,1-.32,1.36,3.33,3.33,0,0,1-.93,1.13,4.61,4.61,0,0,1-2.9,1,4.89,4.89,0,0,1-1.57-.25,4.4,4.4,0,0,1-1.34-.71,3.24,3.24,0,0,1-1.23-2l.77-.46a2.23,2.23,0,0,0,1,1.74,3.24,3.24,0,0,0,1.09.59,4.23,4.23,0,0,0,1.32.2,3.7,3.7,0,0,0,2.41-.79,2.22,2.22,0,0,0,.94-1.78,2,2,0,0,0-.35-1.12,2.92,2.92,0,0,0-1-.89,6.4,6.4,0,0,0-2.1-.52l-.9-.15a4.51,4.51,0,0,1-1.33-.42,3.64,3.64,0,0,1-1.37-1.23,3,3,0,0,1-.5-1.65,2.85,2.85,0,0,1,.33-1.34,3.5,3.5,0,0,1,.94-1.11A4.41,4.41,0,0,1,135,.72a4.91,4.91,0,0,1,1.57-.25,4.61,4.61,0,0,1,2.9,1,3.18,3.18,0,0,1,1.21,2l-.77.46a2.1,2.1,0,0,0-.26-.93,2.76,2.76,0,0,0-.69-.81,3.45,3.45,0,0,0-1.1-.59,4.18,4.18,0,0,0-1.3-.2,4.26,4.26,0,0,0-1.31.2,3.23,3.23,0,0,0-1.1.59,2.72,2.72,0,0,0-.71.82,1.92,1.92,0,0,0-.25.94,2.07,2.07,0,0,0,.41,1.19,2.92,2.92,0,0,0,1,.92,3,3,0,0,0,.83.28q.45.09,1.17.18l.62.1a7.6,7.6,0,0,1,1,.21,3.33,3.33,0,0,1,.78.33A3.83,3.83,0,0,1,140.25,8.32Z"/><path class="cls-2" d="M62.93,26.12V58.8H60.14V18.07L88,51.37V18.57h2.79V59.48Z"/><path class="cls-2" d="M120.49,59.23a19.85,19.85,0,0,1-10.21-2.75,20.51,20.51,0,0,1-10.15-17.79,20.51,20.51,0,0,1,10.15-17.79,20.31,20.31,0,0,1,20.43,0,20.51,20.51,0,0,1,10.15,17.79A20.51,20.51,0,0,1,130.7,56.48,19.85,19.85,0,0,1,120.49,59.23Zm0-38.25a16.94,16.94,0,0,0-8.79,2.38,17.9,17.9,0,0,0-6.41,6.44,17.74,17.74,0,0,0,0,17.76A17.88,17.88,0,0,0,111.7,54a17.4,17.4,0,0,0,17.58,0,17.66,17.66,0,0,0,6.38-6.44,17.95,17.95,0,0,0,0-17.76,17.67,17.67,0,0,0-6.37-6.44A16.94,16.94,0,0,0,120.49,21Z"/><path class="cls-2" d="M162.89,52.55l15.23-34h3.09L162.89,59.48,144.63,18.57h3Z"/><path class="cls-2" d="M205.29,59.23A14.7,14.7,0,0,1,199.44,58a15.27,15.27,0,0,1-5-3.44,14.2,14.2,0,0,1-3.31-5,15.91,15.91,0,0,1-1.15-6V18.57h2.79V43.64a13,13,0,0,0,1,5,12.21,12.21,0,0,0,2.69,4.09,12.61,12.61,0,0,0,4.08,2.75,12.19,12.19,0,0,0,4.77,1,12.36,12.36,0,0,0,4.83-1,12.63,12.63,0,0,0,4.08-2.75,12.27,12.27,0,0,0,2.69-4.09,13,13,0,0,0,1-5V18.57h2.79V43.64a16,16,0,0,1-1.15,6,14.21,14.21,0,0,1-3.31,5,15.38,15.38,0,0,1-5,3.44A14.79,14.79,0,0,1,205.29,59.23Z"/><path class="cls-2" d="M270.71,58.8V27L252.88,52.43l-18.07-25.5V58.8H232V18.07l20.86,29.46,20.61-29.46V58.8Z"/></g></g></svg>